<?xml version="1.0" encoding="utf-8"?>
<!-- Generator: Adobe Illustrator 25.4.1, SVG Export Plug-In . SVG Version: 6.00 Build 0)  -->
<svg version="1.1" xmlns="http://www.w3.org/2000/svg" xmlns:xlink="http://www.w3.org/1999/xlink" x="0px" y="0px"
	 viewBox="0 0 123 156.8" style="enable-background:new 0 0 123 156.8;" xml:space="preserve">
<style type="text/css">
	.st0{fill:#FFFFFF;}
</style>
<g id="Livello_3">
</g>
<g id="Livello_5">
	<path class="st0" d="M4.3,149.2v7.3H0v-20.7h8.1c1.6,0,2.9,0.3,4.1,0.9s2.1,1.4,2.7,2.4c0.6,1,1,2.2,1,3.6c0,2-0.7,3.6-2.1,4.8
		c-1.4,1.2-3.3,1.8-5.8,1.8H4.3z M4.3,145.8h3.8c1.1,0,2-0.3,2.6-0.8c0.6-0.5,0.9-1.3,0.9-2.3c0-1-0.3-1.8-0.9-2.5
		c-0.6-0.6-1.4-0.9-2.5-1H4.3V145.8z M31.2,147.6H23v5.5h9.6v3.4H18.8v-20.7h13.8v3.5H23v4.9h8.2V147.6z M42.8,149h-3.4v7.6h-4.3
		v-20.7h7.7c2.4,0,4.3,0.5,5.7,1.6c1.3,1.1,2,2.6,2,4.6c0,1.4-0.3,2.6-0.9,3.5c-0.6,0.9-1.5,1.7-2.8,2.3l4.5,8.5v0.2h-4.6L42.8,149z
		 M39.4,145.5h3.4c1.1,0,1.9-0.3,2.5-0.8c0.6-0.5,0.9-1.3,0.9-2.3c0-1-0.3-1.7-0.8-2.3c-0.6-0.6-1.4-0.8-2.5-0.8h-3.4V145.5z
		 M64.4,151.1c0-0.8-0.3-1.4-0.9-1.9c-0.6-0.4-1.6-0.9-3.1-1.4c-1.5-0.5-2.6-0.9-3.5-1.4c-2.3-1.3-3.5-3-3.5-5.1
		c0-1.1,0.3-2.1,0.9-3c0.6-0.9,1.5-1.6,2.7-2.1c1.2-0.5,2.5-0.7,4-0.7c1.5,0,2.8,0.3,3.9,0.8c1.2,0.5,2.1,1.3,2.7,2.3
		c0.6,1,1,2.1,1,3.3h-4.3c0-0.9-0.3-1.7-0.9-2.2c-0.6-0.5-1.4-0.8-2.5-0.8c-1,0-1.9,0.2-2.4,0.7c-0.6,0.4-0.9,1-0.9,1.7
		c0,0.7,0.3,1.2,1,1.7c0.7,0.5,1.7,0.9,3,1.3c2.4,0.7,4.2,1.6,5.3,2.7c1.1,1.1,1.7,2.4,1.7,4c0,1.8-0.7,3.2-2,4.2
		c-1.4,1-3.2,1.5-5.5,1.5c-1.6,0-3-0.3-4.3-0.9c-1.3-0.6-2.3-1.4-3-2.4c-0.7-1-1-2.2-1-3.5h4.3c0,2.3,1.4,3.4,4.1,3.4
		c1,0,1.8-0.2,2.4-0.6C64.1,152.4,64.4,151.8,64.4,151.1z M84,147.6h-8.2v5.5h9.6v3.4H71.6v-20.7h13.8v3.5h-9.6v4.9H84V147.6z
		 M103.6,135.9v13.6c0,2.3-0.7,4.1-2.1,5.4c-1.4,1.3-3.3,2-5.8,2c-2.4,0-4.3-0.6-5.8-1.9c-1.4-1.3-2.1-3-2.2-5.3v-13.8H92v13.6
		c0,1.4,0.3,2.3,1,3c0.6,0.6,1.5,0.9,2.7,0.9c2.4,0,3.6-1.3,3.7-3.8v-13.8H103.6z M117.8,151.1c0-0.8-0.3-1.4-0.9-1.9
		c-0.6-0.4-1.6-0.9-3.1-1.4c-1.5-0.5-2.6-0.9-3.5-1.4c-2.3-1.3-3.5-3-3.5-5.1c0-1.1,0.3-2.1,0.9-3c0.6-0.9,1.5-1.6,2.7-2.1
		c1.2-0.5,2.5-0.7,4-0.7c1.5,0,2.8,0.3,3.9,0.8c1.2,0.5,2.1,1.3,2.7,2.3c0.6,1,1,2.1,1,3.3h-4.3c0-0.9-0.3-1.7-0.9-2.2
		c-0.6-0.5-1.4-0.8-2.5-0.8c-1,0-1.9,0.2-2.4,0.7c-0.6,0.4-0.9,1-0.9,1.7c0,0.7,0.3,1.2,1,1.7c0.7,0.5,1.7,0.9,3,1.3
		c2.4,0.7,4.2,1.6,5.3,2.7c1.1,1.1,1.7,2.4,1.7,4c0,1.8-0.7,3.2-2,4.2c-1.4,1-3.2,1.5-5.5,1.5c-1.6,0-3-0.3-4.3-0.9
		c-1.3-0.6-2.3-1.4-3-2.4c-0.7-1-1-2.2-1-3.5h4.3c0,2.3,1.4,3.4,4.1,3.4c1,0,1.8-0.2,2.4-0.6C117.5,152.4,117.8,151.8,117.8,151.1z
		 M102.5,15.2C102.6,15.2,102.6,15.2,102.5,15.2C102.5,15.2,102.5,15.2,102.5,15.2z M76.4,1.6c0.1,0,0.2,0,0.3,0.1
		C76.5,1.6,76.4,1.6,76.4,1.6z M113.9,28.8C113.9,28.8,113.9,28.8,113.9,28.8c0,0.1,0.1,0.2,0.2,0.4c0.1,0.2,0.2,0.4,0.4,0.6
		C114.3,29.5,114.1,29.2,113.9,28.8z M18.3,19.5l0.3-0.3C18.5,19.3,18.4,19.4,18.3,19.5z M50.7,1.2c-0.1,0-0.3,0.1-0.5,0.1
		C50.4,1.3,50.6,1.3,50.7,1.2z M117.7,37.4c-0.1-0.2-0.1-0.3-0.2-0.5C117.5,36.9,117.6,37.1,117.7,37.4z M122.2,54.7
		C122.2,54.6,122.2,54.6,122.2,54.7C122.2,54.6,122.2,54.6,122.2,54.7z M121.2,47.7c0-0.1-0.1-0.3-0.1-0.5
		C121.2,47.4,121.2,47.7,121.2,47.7z M121.1,47c0,0.1,0,0.2,0.1,0.2C121.1,47.1,121.1,47,121.1,47z M123,63.1c0-0.5,0-1,0-1.4
		C123,62.2,123,62.6,123,63.1z M3.8,73.1l0-0.1C3.8,73.1,3.8,73.2,3.8,73.1z M122.7,62.5l0-0.4C122.7,62.2,122.7,62.3,122.7,62.5z
		 M113.3,29c-0.2-0.2-0.4-0.5-0.5-0.8c-0.2-0.3-0.3-0.5-0.3-0.5c0.2,0.2,0.3,0.5,0.5,0.8C113.1,28.7,113.2,28.9,113.3,29z M8.8,84.2
		L9,84.5C8.9,84.3,8.9,84.3,8.8,84.2z M122.7,62.5l0,0.4c0,0,0-0.1,0-0.1C122.7,62.7,122.7,62.6,122.7,62.5z M41.5,116.8
		C41.5,116.8,41.5,116.8,41.5,116.8c-0.1,0-0.1,0-0.1,0L41.5,116.8z M44.5,117.9c-0.2-0.1-0.4-0.1-0.7-0.2
		C44.2,117.8,44.4,117.9,44.5,117.9z M123,61.7l0-0.8C123,61.1,123,61.4,123,61.7z M78.5,118.7c-0.1,0-0.2,0.1-0.3,0.1
		C78.3,118.7,78.4,118.7,78.5,118.7z M53.1,0.8c0.1,0,0.2,0,0.3,0C53.4,0.8,53.3,0.8,53.1,0.8z M31.5,9.9L31.5,9.9L31.5,9.9
		C31.5,9.9,31.5,9.9,31.5,9.9z M32.6,9.2c-0.2,0.1-0.4,0.2-0.6,0.3c-0.2,0.1-0.4,0.3-0.5,0.3c0.2-0.1,0.3-0.2,0.5-0.3
		C32.2,9.5,32.4,9.4,32.6,9.2z M29.3,11.4c0,0,0.1,0,0.1-0.1C29.4,11.3,29.3,11.3,29.3,11.4z M52.3,2C52.3,2,52.3,2,52.3,2
		C52.3,2,52.3,2,52.3,2L52.3,2z M47.5,3.1c-0.1,0-0.2,0-0.3,0.1C47.2,3.1,47.3,3.1,47.5,3.1z M20,19.4C20,19.4,20,19.4,20,19.4
		C20,19.5,20,19.5,20,19.4C20,19.5,20,19.5,20,19.4z M3.9,61.9c-0.1-2.3,0-5,0.2-7.7c0.3-2.7,0.7-5.3,1.2-7.6
		c0.1-0.5,0.2-1.1,0.4-1.8c0.1-0.3,0.2-0.7,0.3-1c0.1-0.3,0.2-0.7,0.3-1.1l0.1-0.1l0.4-1.2c0.2-0.5-0.3,0.9,0,0.1
		c0-0.2,0.1-0.3,0.1-0.5c0,0,0.3-0.8,0.5-1.3c0.2-0.5,0.3-0.7,0,0.3c0.5-1.5,1.2-3,1.8-4.4c0.2-0.5,0.3-0.6,0.3-0.8
		c0-0.1,0.1-0.2,0.1-0.3c0.1-0.1,0.1-0.3,0.3-0.6c0.1-0.2-0.2,0.4-0.1,0.3c0.2-0.4,0.4-0.7,0.5-1.1c0.2-0.3,0.3-0.6,0.4-0.9
		c0.1-0.3,0.3-0.5,0.4-0.7c0.1-0.2,0.2-0.5,0.3-0.7c0.2-0.4,0.5-0.9,0.7-1.4c0.1-0.2,0.3-0.5,0.5-0.8c0.1-0.1,0.2-0.3,0.3-0.4
		c0.1-0.2,0.2-0.3,0.3-0.5l-0.1,0.2c0.1-0.2,0.4-0.6,0.5-0.9c0.1-0.1,0.2-0.3,0.2-0.4c0.1-0.1,0.1-0.1,0.1-0.2
		c-0.2,0.1-0.2,0.3-0.3,0.5c-0.1,0.2-0.2,0.5-0.5,0.9c0-0.1,0.6-1.1,0.6-1c0.2-0.3,0.4-0.6,0.6-0.8c0.1-0.1,0.2-0.2,0.2-0.4
		c0.1-0.1,0.2-0.2,0.3-0.4c0.7-0.9,1.7-2.2,2.3-2.8c0.2-0.2,0.3-0.5,0.6-0.8c0.1-0.2,0.2-0.3,0.4-0.5c0.2-0.2,0.3-0.4,0.5-0.6
		c0.3-0.3,0.3-0.3,0.3-0.2c0,0,0,0,0.4-0.4l0.1-0.2c0.7-0.7,0.6-0.6,0.6-0.5c0.4-0.4,0.5-0.5,0.7-0.7c0.1-0.1,0.2-0.2,0.3-0.3
		c0.1-0.1,0.3-0.3,0.5-0.5L21,18.4c0.3-0.3,0.6-0.6,0.8-0.8c0.1-0.1,0.3-0.3,0.5-0.4c0.2-0.2,0.4-0.3,0.6-0.6c0,0-0.4,0.4-0.7,0.7
		c0.6-0.4,0.9-0.9,1.2-1.1c0,0-0.2,0.2-0.4,0.3c-0.1,0.1-0.2,0.2-0.1,0c0.2-0.2,0.5-0.5,0.7-0.7c0.1-0.1,0.2-0.2,0.3-0.3
		c0.1-0.1,0.2-0.2,0.3-0.2l-0.3,0.3l-0.3,0.3c0.3-0.2,0.4-0.4,0.5-0.5c0.1-0.1,0.2-0.2,0.3-0.2c0.1-0.1,0.2-0.1,0.3-0.3
		c0.1-0.1,0.2-0.1,0.3-0.2c0.1-0.1,0.2-0.2,0.4-0.3c-0.1,0.1,0,0,0,0.1c0.2-0.2,0.4-0.3,0.6-0.5c0.2-0.2,0.5-0.4,0.7-0.6
		c0.5-0.4,1.1-0.8,1.7-1.2l-0.2,0.2c0.2-0.2,0.4-0.3,0.6-0.4c0.2-0.1,0.3-0.2,0.4-0.3c-0.7,0.5-0.5,0.3-0.6,0.3
		c0.2-0.1,0.4-0.3,0.6-0.4c0.2-0.1,0.4-0.3,0.6-0.4c0.4-0.3,0.9-0.7,1.7-1.1c0,0-0.4,0.3-0.8,0.5c-0.2,0.2-0.4,0.3-0.5,0.5
		c-0.2,0.2-0.4,0.3-0.9,0.7c0.1-0.1,0.3-0.2,0.4-0.3c0.1-0.1,0.3-0.2,0.4-0.3c0.2-0.1,0.4-0.2,0.3-0.2l0.1-0.2
		c0.3-0.2,0.6-0.4,0.9-0.6c0.1-0.1-0.8,0.4,0-0.2c0.2-0.2,0.4-0.2,0.5-0.3c0.1-0.1,0.1-0.1,0.2-0.1c0,0,0,0.1,0,0
		C32.9,9,33,8.9,33.1,8.8c0.1-0.1,0.2-0.2,0.9-0.5c-0.1,0.1-0.4,0.2-0.5,0.3c0.9-0.5,2.2-1.2,2.6-1.3c-0.1,0.1-0.1,0.1-0.5,0.3l0,0
		c-0.5,0.3-0.3,0.2,0,0c0.3-0.2,0.7-0.3,0.5-0.2c0,0,0.3-0.2,0.6-0.4c0.4-0.2,0.9-0.4,1.2-0.5l-0.2,0c1-0.5,0.9-0.5,0.9-0.4
		c0,0.1,0,0.1,1-0.3c1.3-0.6-0.5,0.2,0.3-0.2c0.4-0.2,0.7-0.3,1.1-0.4c0.3-0.1,0.8-0.3,1.4-0.5c0.4-0.1,1.1-0.3,1.2-0.3
		c0.1,0,0.2-0.1,0.3-0.1c0.1,0,0.2-0.1,0.4-0.1c0.3-0.1,0.6-0.2,0.8-0.3c0.6-0.2,1.1-0.3,1.3-0.4c-1.4,0.4-1.3,0.5-2.9,0.9l0.4-0.2
		c1.1-0.4,2.5-0.8,3.2-1c-0.2,0-0.2,0-0.1,0c0.4-0.1,0.7-0.2,1-0.3c0.3-0.1,0.5-0.1,0.8-0.2c0.3-0.1,0.5-0.1,0.8-0.2
		c0.3-0.1,0.6-0.1,1-0.2c0.1,0-0.1,0.1-0.3,0.1c-0.1,0-0.3,0.1-0.5,0.1c-0.1,0-0.2,0-0.3,0.1c-0.1,0-0.2,0-0.3,0.1
		c0.3,0,0.4-0.1,0.6-0.1c0.2,0,0.3-0.1,0.5-0.1c0.2,0,0.3-0.1,0.6-0.1c0.2,0,0.5-0.1,0.9-0.2c0.1,0-1,0.2-1.2,0.3
		c0.3-0.1,0.6-0.1,0.9-0.2L52.3,2c0,0,0,0,0,0c0.1-0.1,0.4-0.1,0.9-0.2c0.2,0,0.5-0.1,0.7-0.1c0.3,0,0.5-0.1,0.8-0.1
		c0.6-0.1,1.1-0.2,1.5-0.2c0.2,0,0.4-0.1,0.6-0.1c0.2,0,0.3,0,0.5-0.1C57.8,1.1,58.3,1,59,1c0.4,0,0.5,0,0.3,0c-0.6,0-0.5,0-0.7,0.1
		c0.4,0,0.9,0,1.2,0c0.3,0,0.4,0,0.2,0.1c1.4-0.1-0.5,0,0.3-0.1l0.9,0c0.3,0,0.6,0,0.9,0c-0.2,0-0.9,0,0.1-0.1c0.2,0,0.4,0,0.5,0
		c0.2,0,0.3,0,0.5,0c0.3,0,0.7,0,1.2,0c-0.1,0,0,0,0,0c0,0-0.1,0-0.5,0c0.3,0,0.6,0,0.9,0c0.3,0,0.6,0,0.7,0c-0.6,0-0.1,0,0.4,0
		c0.5,0,1.1,0,0.6,0L67.3,1c0.2,0,0.4,0,0.6,0.1c-0.3,0-0.3,0-0.7,0c0.3,0.1,1,0.1,1.4,0.1c0.1,0,0.2,0,0.4,0c0.2,0,0.3,0,0.5,0.1
		c0.3,0,0.6,0.1,0.7,0.1c0.2,0,0.5,0.1,0.8,0.1c0.3,0,0.6,0.1,0.6,0.1c0.5,0.1,0,0,0.2,0c0.3,0,0.6,0.1,0.9,0.2l0.5,0.1l0.2,0l0.2,0
		C73.7,1.9,73.8,2,73.5,2c0.7,0.1,0.3-0.1,1.3,0.2c-0.6-0.1,1.4,0.4,0.5,0.2c0.3,0.1,0.9,0.2,1.5,0.4c0.3,0.1,0.6,0.2,0.9,0.2
		C78,3,78.3,3.1,78.5,3.2c0.6,0.1-1-0.3-0.9-0.3c0.7,0.2,1.2,0.3,1.6,0.4c0.4,0.1,0.7,0.2,1,0.3c0.3,0.1,0.6,0.1,0.9,0.2
		c0.3,0.1,0.7,0.2,1.2,0.4C82.1,4,82,4,81.8,3.9c0.6,0.2,0.8,0.3,1,0.3c0.2,0.1,0.3,0.1,0.7,0.2c-0.3-0.1,1.3,0.6,3.1,1.4
		c0.2,0-1-0.5-0.7-0.4L87.2,6c0.1,0-0.1,0-0.2-0.1c0.3,0.1,0.5,0.2,0.8,0.4c0.2,0.1,0.5,0.2,0.7,0.3C88.9,6.8,89.2,7,89.3,7l0.5,0.3
		l0.5,0.3L90,7.4c0.2,0,1.4,0.7,1.6,0.8c0.3,0.2,0.6,0.3,0.8,0.4c0.2,0.1,0.4,0.2,0.6,0.3c0.3,0.2,0.6,0.4,0.9,0.6
		c-0.1-0.1-0.3-0.2-0.3-0.2c0,0,0.1,0,0.6,0.3c0,0,0.4,0.4,0.9,0.7c0.5,0.3,0.9,0.6,0.9,0.6c0.4,0.2,1,0.7,1.1,0.7l-0.1,0
		c0,0,0.1,0,0.3,0.1c0.2,0.1,0.4,0.2,0.6,0.4c0.2,0.2,0.5,0.3,0.8,0.5c0.3,0.2,0.5,0.4,0.8,0.6c-0.2,0,0.1,0.2,0.5,0.4
		c0.3,0.3,0.8,0.6,0.9,0.8c0.1,0,0.5,0.4,1,0.7c0.4,0.4,0.8,0.7,0.9,0.8c0.2,0.2,0.3,0.3,0.4,0.4c0.1,0.1,0.1,0.2,0.2,0.2
		c0.1,0.1,0.1,0.1,0.2,0.2l0.3,0.3c0.2,0.2,0.6,0.6,1,1c0.2,0.2,0.4,0.5,0.7,0.7c0.2,0.2,0.4,0.5,0.6,0.7l0.7,0.7
		c0.1,0.1,0.1,0.2,0.2,0.3c0.1,0.1,0.7,0.7,0.4,0.3l0.3,0.4c0.1,0,0.5,0.5,1.2,1.3c0.1,0.2,0.1,0.2-0.1,0c0.3,0.4,0.2,0.3,0.3,0.5
		c-0.1-0.2,0.2,0.2,0.5,0.4c0.1,0.1,0.2,0.2,0.2,0.2c0,0,0-0.1-0.3-0.4c0,0,0.1,0.1,0.3,0.3c0.2,0.2,0.4,0.5,0.5,0.7l0.1,0.3
		c0.1,0.1,0.3,0.3,0.4,0.5c0.2,0.3,0.4,0.6,0.6,0.8c0.1,0.2,0.3,0.4,0.5,0.7c-0.4-0.6-1-1.1,0,0.3c-0.3-0.4-0.5-0.6-0.6-0.9
		c-0.2-0.2-0.3-0.4-0.5-0.6c0.2,0.3,0.3,0.4,0,0c0.4,0.5,0.5,0.6,0.6,0.7c0.1,0.1,0.1,0.2,0.5,0.7c0,0,0,0.1,0.1,0.3
		c0.1,0.2,0.3,0.5,0.6,1l-0.4-0.8c0,0,0.1,0.1,0.1,0.1c-0.2-0.3-0.2-0.4-0.2-0.4c0.1,0.1,0.3,0.4,0.5,0.7c0.2,0.3,0.4,0.6,0.5,0.7
		c-0.3-0.6,0-0.1,0.4,0.4c0.4,0.5,0.7,1.2,0.5,0.8c0.1,0.1,0.6,0.9,0.6,1c-0.3-0.5-0.2-0.3-0.1,0c0.1,0.3,0.3,0.7,0.3,0.6
		c0.2,0.4-0.4-0.8-0.1-0.3c0.2,0.3,0.3,0.6,0.4,0.8c0.1,0.2,0.2,0.4,0.3,0.6l-0.1-0.2l0.5,0.9c0.1,0.1-0.4-0.9,0-0.1
		c0.1,0.2,0.5,1.1,0.5,1.1c-0.2-0.4-0.2-0.1-0.5-0.8c0.2,0.3,0.5,0.9,0.7,1.4c0.2,0.5,0.4,0.7,0.2,0.3l0.3,0.7
		c-0.2-0.5-0.7-1.8,0-0.3l0,0c0.2,0.3,0.3,0.7,0.5,1l0.2,0.5c0,0,0.1,0.1,0.3,0.5c0,0.1,0.2,0.5,0.1,0.5c0.1,0.3,0.2,0.5,0.3,0.6
		c0.1,0.2,0.1,0.2,0.1,0.3c0.1,0.1,0.1,0.1,0.1,0.2c0.2,0.6,0.3,0.9,0.2,0.6c0.1,0.2,0.2,0.5,0.3,0.8c0.1,0.3,0.2,0.6,0.3,0.9
		c0.2,0.6,0.3,1.1,0.4,1.4c0.4,1.2-0.1-0.2,0.2,0.4c0,0.3,0.1,0.6,0.3,1.1c0.1,0.2,0.1,0.5,0.2,0.7c0.1,0.3,0.1,0.5,0.2,0.8
		c0.1,0.6,0.3,1.1,0.4,1.7c0.1,0.3,0.1,0.6,0.2,0.8c0.1,0.3,0.1,0.5,0.2,0.8c0-0.6,0.1,0.5,0.3,0.9c-0.1-0.4,0.2,1.9-0.1,0.2
		l0.2,1.1c0.1,0.7-0.3-1.8-0.2-0.6c0,0.3,0.1,0.6,0.2,0.8c0,0.3,0.1,0.5,0.1,0.8c0.1,0.5,0.2,1.1,0.2,1.8c-0.1-0.2,0,0,0,0.3
		c0,0.3,0.1,0.6,0,0.4c0-0.1,0-0.3-0.1-0.5c0-0.2,0-0.4-0.1-0.6l0,0.3c0,0.2,0,0.3,0,0.4c0,0.1,0,0.2,0,0.3c0,0.2,0,0.4,0,0.5
		c0,0.2,0,0.3,0.1,0.3c0,0,0,0,0.1,0.1c0,0.1,0.1,0.2,0.1,0.5c0.1,1.6,0,1.3,0,1.4c0,0.3,0,1.1,0.1,1.5c-0.1-1,0-1.8,0-1.4
		c0,0.4,0,1,0,1.5c0,0.6,0.1,1.1,0.1,1.3c0-1.2,0-1.6,0-1.9c0-0.2,0-0.4,0-0.7c0-0.1,0-0.3,0-0.5c0-0.2,0-0.4,0-0.7
		c0-0.1-0.1-0.2-0.1-0.4c0-0.1,0-0.2,0-0.4c0-0.2,0-0.4-0.1-0.7c0.1,0.8,0-0.1,0-0.3c0,0.1,0-0.1-0.1-0.4c0-0.3-0.1-0.7-0.1-0.9
		c0-0.4,0.2,0.8,0.1-0.6c0-0.1-0.1-0.2-0.1-0.2c-0.1-0.5,0.1,0.2-0.1-0.9c0.1,0.3,0.1,0.2,0.1,0.3c0,0,0,0.1,0.1,0.2
		c0,0.1,0.1,0.4,0.1,0.7c0-0.1,0-0.2,0-0.3c0-0.1,0-0.2,0-0.3c0-0.2,0-0.4-0.1-0.6c-0.1-0.4-0.1-0.7-0.2-1c-0.1-0.3-0.1-0.6-0.2-0.9
		c-0.1-0.3-0.1-0.6-0.2-1c0,0.1,0,0.2,0.1,0.3c0-0.1-0.1-0.3-0.1-0.6c0-0.2-0.1-0.4-0.1-0.6c-0.1-0.4,0-0.3,0,0
		c0.1,0.3,0.1,0.6,0.1,0.5c-0.1-0.5-0.2-1-0.3-1.4c0,0,0,0,0,0c-0.1-0.4-0.2-0.7-0.2-0.9c0.1,0.4,0.2,0.6,0.3,0.9
		c-0.1-0.5-0.3-1-0.4-1.5c0.1,0.2-0.3-1.3,0-0.2l-0.3-1.1l-0.1-0.3l-0.1-0.3l-0.2-0.6l0-0.2c-0.2-0.5-0.2-0.5,0,0.1
		c-0.1-0.4-0.4-1.2-0.6-1.9c-0.3-0.7-0.4-1.2-0.3-1c-0.2-0.4-0.3-0.8-0.4-1.1c-0.1-0.3-0.2-0.6-0.4-0.9c-0.1-0.3-0.3-0.6-0.4-1
		c-0.2-0.4-0.3-0.8-0.6-1.3c0.4,0.8,0.2,0.3,0-0.1c-0.2-0.4-0.4-0.9,0,0c-0.4-1-0.6-1.1-0.9-1.9c-0.3-0.7-0.1-0.4,0.3,0.3l-0.5-0.9
		l0,0c-0.1-0.3-0.3-0.5-0.4-0.7c-0.2-0.4-0.2-0.5-0.2-0.5c0-0.1,0-0.1-0.2-0.5l-0.2-0.1l-0.3-0.6c0,0.1,0,0-0.1-0.1
		c-0.1-0.2-0.3-0.4-0.4-0.7l0,0c-0.1-0.2-0.3-0.5-0.4-0.7c0.2,0.3,0.1,0.2,0,0c-0.1-0.2-0.3-0.5-0.2-0.3c-0.4-0.6-0.4-0.6-1.1-1.7
		l0.1,0.2c-0.5-0.7-0.5-0.7-0.4-0.7c0,0,0.1,0-0.3-0.5l0,0.1c-0.1-0.2-0.3-0.4-0.4-0.6c-0.1-0.2-0.3-0.4-0.4-0.5
		c-0.2-0.3-0.5-0.7-0.7-1c-0.2-0.3-0.5-0.6-0.7-0.9c-0.2-0.3-0.4-0.6-0.7-0.8c0.5,0.6,0.4,0.4,0.4,0.4c-0.2-0.2-0.4-0.5-0.7-0.8
		c-0.2-0.3-0.5-0.6-0.8-0.9c-0.5-0.6-1.1-1.2-1.6-1.7c-0.3-0.4-0.3-0.5-1.2-1.5c-0.1-0.1-0.2-0.2-0.2-0.2c-0.1-0.1-0.1-0.1-0.2-0.2
		c-0.1-0.1-0.2-0.2-0.3-0.3c-0.1-0.1-0.2-0.2-0.4-0.3c-0.1-0.1-0.2-0.2-0.3-0.3c-0.1-0.1-0.2-0.2-0.3-0.3c-0.2-0.2-0.4-0.4-0.6-0.6
		c-0.4-0.4-0.7-0.7-0.7-0.7c-0.1-0.1-0.2-0.2-0.4-0.4c-0.2-0.2-0.4-0.3-0.6-0.5l-0.1-0.1l0,0.1c-1.2-1.1-2.2-1.7-3.5-2.7l0.2,0.2
		l-0.6-0.4c-0.1-0.1,0.2,0.1,0.2,0.1c-0.2-0.2-0.4-0.3-0.7-0.5l-0.7-0.5c-0.4-0.3-0.9-0.6-1.3-0.9c0.2,0.1,0.3,0.3,0.5,0.4
		c-0.6-0.4-1-0.6-1.6-1c0.6,0.3,0.3,0.2,0-0.1c-0.4-0.2-1-0.6-1-0.6l0.6,0.3c-0.8-0.5-0.8-0.5-0.8-0.4c-0.5-0.3-0.7-0.4-0.9-0.5
		c-0.2-0.1-0.3-0.2-0.8-0.5l0.4,0.2l0.4,0.2C92,7.8,91.5,7.5,91,7.3c-0.1-0.1-0.4-0.3-0.1-0.1c-0.2-0.1-0.5-0.2-0.7-0.4
		c-0.3-0.1-0.5-0.3-0.7-0.4c-0.2-0.1-0.5-0.2-0.7-0.3C88.6,6,88.5,6,88.4,5.9c-0.5-0.2-0.3-0.2,0-0.1c-0.9-0.4-1.2-0.5-1.4-0.6
		c-0.1,0-0.2-0.1-0.4-0.2c-0.1,0-0.2-0.1-0.4-0.2c-0.2-0.1-0.4-0.1-0.6-0.2l0,0l-0.7-0.2L84,4l0.3,0.2C84,4,83.8,3.9,83.5,3.8
		c-0.3-0.1-0.6-0.2-0.9-0.3l0.3,0.1C81,3,80.8,2.8,79,2.3c-0.1,0,0.2,0,0.3,0.1c-0.8-0.2-1.1-0.3-1.4-0.4c-0.3-0.1-0.6-0.2-1.5-0.3
		c0.1,0-0.1,0,0,0l-0.8-0.1l0.1,0l-0.6-0.1c-0.2-0.1-0.3-0.1-0.5-0.1l-0.3,0c-0.2-0.1-0.4-0.1-0.7-0.2c-0.2-0.1-0.5-0.1-0.8-0.1
		c-0.3,0-0.5-0.1-0.8-0.1c-0.3,0-0.6-0.1-0.8-0.2l0.2,0.1c-0.4,0-0.7-0.1-1.1-0.1c-0.4,0-0.8-0.1-1.2-0.1c-0.8-0.1-1.6-0.2-2.5-0.2
		c-1.7-0.1-3.5-0.2-5.2-0.1L61.5,0c-0.5,0-1,0.1-1.4,0.1c-0.8,0,0.5-0.1,0.2-0.1c-0.4,0-0.6,0-0.8,0.1c-0.2,0-0.2,0-0.3,0
		c-0.1,0-0.2,0-0.4,0.1c-0.2,0-0.5,0-0.9,0.1c-0.5,0-0.4,0-0.1,0c0.1,0,0.3,0,0.4-0.1c0.2,0,0.3,0,0.4,0c-0.4,0-0.9,0.1-1.4,0.1
		c-0.5,0-1,0.1-1.5,0.2c-0.2,0-0.5,0.1-0.7,0.1c-0.2,0-0.4,0.1-0.7,0.1c-0.4,0.1-0.8,0.1-1.1,0.1c0,0-0.1,0,0,0
		c-0.5,0.1-1.2,0.2-1.8,0.3c-0.3,0.1-0.7,0.1-1,0.2c-0.3,0.1-0.6,0.1-0.9,0.2c0,0,0.3-0.1,0.6-0.2c-0.4,0.1-1,0.2-1.4,0.3l0.4-0.2
		c-0.2,0.1-0.5,0.1-0.8,0.2c-0.3,0.1-0.6,0.1-0.9,0.2c-0.6,0.2-1.1,0.3-1.2,0.3c0.1,0,0.1,0,0,0c-0.1,0-0.3,0.1-0.7,0.2
		c-0.2,0-0.8,0.2-1.4,0.4c-0.3,0.1-0.7,0.2-1,0.3c-0.3,0.1-0.7,0.2-1,0.3c0.1-0.1,1-0.4,0.8-0.3c-0.3,0.1-0.6,0.2-0.9,0.3
		c-0.3,0.1-0.5,0.2-0.8,0.3l0.2-0.1l-0.7,0.3c-0.2,0.1-0.5,0.2-0.7,0.3l-0.7,0.3C39.2,4.8,39,4.9,38.8,5c-0.5,0.1-2.6,1.2-2.4,1.1
		c-1,0.5,0.8-0.4-0.4,0.2c-0.2,0.1-0.4,0.2-0.7,0.3c-0.2,0.1-0.4,0.2-0.4,0.2L35,6.8l-0.8,0.5l0.5-0.3c-0.2,0.1-0.3,0.2-0.5,0.3
		c-0.1,0.1-0.3,0.2-0.4,0.2c-0.2,0.1-0.3,0.2-0.4,0.3c-0.2,0.1-0.4,0.2-0.6,0.3c-0.2,0.1-0.4,0.2-0.6,0.3c-0.4,0.2-0.7,0.4-0.8,0.5
		c0.1-0.1,0.2-0.1,0.2-0.2c-0.5,0.3-0.9,0.6-1.3,0.8c-0.4,0.2-0.8,0.5-1.1,0.7c-0.7,0.5-1.4,0.9-2.1,1.4c-0.1,0.1-0.1,0,0.1-0.1
		l-0.6,0.4l-0.5,0.4l0.2-0.2l-0.9,0.7l-0.9,0.7l0,0c-0.3,0.2-0.6,0.5-1,0.8c-0.2,0.1-0.4,0.3-0.5,0.5c-0.2,0.2-0.4,0.3-0.6,0.5
		c-0.4,0.3-0.8,0.7-1.1,1c-0.4,0.3-0.7,0.7-1.1,1l0.2-0.2c-0.2,0.2-0.3,0.3-0.5,0.5c-0.1,0.1-0.3,0.3-0.4,0.4
		c-0.2,0.2-0.4,0.4-0.5,0.5c-0.3,0.3-0.6,0.6-1.1,1.1c0,0,0.1-0.1,0.1-0.1c-0.2,0.2-0.3,0.3-0.5,0.5l-0.5,0.5l0.2-0.2
		c-0.6,0.8-1.9,2.2-1.5,1.7c-0.2,0.2-0.4,0.5-0.6,0.8c-0.2,0.3-0.4,0.5-0.4,0.6c-0.5,0.6-0.5,0.7-0.5,0.7c0,0,0,0-0.3,0.3
		c-0.3,0.4-0.5,0.7-0.7,1c-0.2,0.3-0.4,0.6-0.9,1.2l0,0c-0.2,0.3-0.3,0.5-0.5,0.8c-0.2,0.3-0.3,0.6-0.6,1l0.1-0.2
		c-0.2,0.3-0.4,0.6-0.5,0.8c-0.1,0.2-0.3,0.4-0.4,0.6c-0.1,0.2-0.2,0.4-0.3,0.6c-0.1,0.2-0.2,0.4-0.3,0.7c-0.3,0.6-0.9,1.7-0.9,1.6
		c-0.1,0.1-0.1,0.2-0.2,0.3C9,32.9,8.9,33,8.9,33.1c-0.1,0.2-0.2,0.4-0.3,0.6c-0.2,0.4-0.4,0.8-0.5,1.2c-0.1,0.2-0.2,0.4-0.3,0.6
		c-0.1,0.2-0.2,0.4-0.3,0.6c-0.1,0.2-0.2,0.4-0.3,0.6c-0.1,0.2-0.2,0.4-0.3,0.7c-0.1,0.1-0.1,0.2-0.2,0.4c0,0.1-0.1,0.2-0.1,0.4
		c-0.1,0.2-0.1,0.4-0.3,0.6l0.1-0.1c-0.1,0.3-0.2,0.6-0.4,1c-0.1,0.3-0.2,0.7-0.4,1c-0.1,0.3-0.2,0.7-0.4,1
		c-0.1,0.2-0.1,0.4-0.2,0.5c-0.1,0.2-0.1,0.4-0.2,0.5c-0.5,1.4-0.9,2.9-1.2,4.4l-0.1,0.1l-0.1,0.6c-0.3,1.6-0.7,3.4-0.9,5.2
		c0,0.2-0.1,0.4-0.1,0.7c0,0.2-0.1,0.4-0.1,0.6c0,0.4-0.1,0.8-0.1,1.2c-0.1,0.8-0.1,1.6-0.1,2.2c0,0.2,0,0.5,0,0.7
		c0,0.3,0,0.5,0,0.8c0,0.3,0,0.6,0,0.9c0,0.3,0,0.7,0,1l0-0.1C2.5,63.5,2.7,66,3,68.5c0-0.2,0,0.1-0.1-0.2c0.1,0.3,0.1,0.7,0.2,1
		c0,0.4,0.1,0.7,0.1,1l-0.1-0.6c0.1,0.4,0.2,0.8,0.2,1.2c0.1,0.4,0.1,0.7,0.1,0.9l0.1,0.6c0,0.2,0.1,0.4,0.1,0.6c0,0.1,0,0.2,0,0.2
		l0.1,0.2L4,73.9c0,0.1,0.2,0.6,0.3,1c0.1,0.5,0.3,0.9,0.4,1.2c0,0.1,0.3,1.2,0,0.4c0.4,1.3,0.8,2.7,1.2,4l-0.2-0.6
		c0,0,0.1,0.2,0.3,0.6C6,80.6,6.1,80.8,6.2,81c0.1,0.2,0.1,0.4,0.2,0.5c-0.3-0.8-0.1,0,0,0.3c0.2,0.5-0.1-0.5,0-0.2
		C6.5,82,6.7,82.5,6.9,83c0.1,0.2,0.2,0.5,0.3,0.7c0.1,0.2,0.1,0.3,0.2,0.4c-0.1-0.1-0.1-0.3-0.2-0.4c0.4,0.9,0.5,1.3,0.9,2.2
		c0.1,0.2,0.2,0.4,0.3,0.5c0.1,0.2,0.2,0.3,0.2,0.4C8.7,87,8.8,87.1,8.8,87c0.6,1.1,0.2,0.5,0.3,0.8c0.2,0.2,0.4,0.8,0.7,1.2
		c0.3,0.5,0.5,0.9,0.5,1c0.1,0.1,0.3,0.4,0.4,0.7c0.2,0.3,0.4,0.7,0.6,1c0.2,0.3,0.4,0.7,0.6,0.9c0.2,0.3,0.3,0.4,0.3,0.5l0.5,0.9
		c0,0,0.2,0.1,0.7,0.8c0.2,0.3,0.3,0.5,0.3,0.5c0,0.1,0,0.1,0.1,0.2l0.4,0.4c0.3,0.5,0.7,0.9,1,1.4c0.2,0.2,0.4,0.5,0.6,0.7
		c0.2,0.2,0.4,0.5,0.6,0.7c0.4,0.5,0.8,1,1.3,1.5c0.2,0.2,0.4,0.5,0.7,0.7c0.2,0.2,0.5,0.5,0.7,0.7c0.9,1,1.9,1.9,2.8,2.8
		c0.5,0.5,1,0.9,1.4,1.3c0.2,0.2,0.5,0.4,0.7,0.6c0.2,0.2,0.5,0.4,0.7,0.6c0.4,0.3,0.9,0.7,1.4,1.1c0.2,0.2,0.5,0.4,0.7,0.6
		c0.3,0.2,0.5,0.4,0.8,0.6c0.3,0.2,0.5,0.4,0.8,0.6c0.3,0.2,0.5,0.4,0.8,0.6c0.6,0.4,1.1,0.7,1.6,1.1l-0.2-0.1
		c0.4,0.2,0.7,0.5,1.1,0.7l1.1,0.7l-0.8-0.5l-0.4-0.2c-0.1-0.1-0.3-0.2-0.4-0.3c0.1,0.1,0.2,0.1,0.3,0.2c0.1,0.1,0.2,0.1,0.3,0.2
		c0.2,0.1,0.4,0.2,0.7,0.4c1.2,0.7,2.6,1.5,4.2,2.3c1.5,0.8,3.2,1.5,4.8,2c0.5,0.2,0.9,0.3,1.1,0.4c0.3,0.1,0.4,0.2,0.6,0.2
		c0.2,0.1,0.3,0.1,0.6,0.2c0.3,0.1,0.6,0.2,1.1,0.3c-0.2,0-0.2-0.1-0.4-0.1c0.3,0.1,0.5,0.2,0.8,0.2c0.3,0.1,0.5,0.1,0.7,0.2
		c0.2,0.1,0.5,0.1,0.7,0.2c0.2,0.1,0.4,0.1,0.7,0.2c0.4,0.1,0.9,0.2,1.3,0.3c0.5,0.1,1,0.2,1.5,0.3c-0.1,0,0.2,0.1,0.6,0.2
		c0.4,0.1,0.8,0.1,0.7,0.1l0.2,0c0.1,0,0.3,0.1,0.5,0.1c0.2,0,0.4,0.1,0.5,0.1c0.3,0.1,0.6,0.1,0.5,0.1c0.2,0,0.3,0,0.5,0.1l0.5,0
		l0.1,0.1c0.7,0.1,1.7,0.2,2.7,0.3c0.5,0,1,0.1,1.3,0.1c0.4,0,0.7,0.1,0.9,0.1c1.7,0.1,3.8,0.1,6.1,0c2.3-0.1,4.6-0.3,6.7-0.6
		c0.3-0.1,0.7-0.2,1.2-0.2c0.2,0,0.5-0.1,0.8-0.1c0.3,0,0.5-0.1,0.7-0.1c0.3,0,0.7-0.1,1-0.2c0.2-0.1,0.5-0.1,0.7-0.2
		c0.2-0.1,0.5-0.1,0.7-0.2c0.2-0.1,0.5-0.1,0.7-0.2c0.2-0.1,0.5-0.1,0.7-0.2c0,0,0,0-0.1,0c0.5-0.1,0.9-0.3,1.4-0.4
		c0.5-0.1,0.9-0.3,1.3-0.4c1-0.3,2-0.7,1.7-0.5c0,0,0.2-0.1,0.4-0.2c0.2-0.1,0.5-0.2,0.7-0.3c0.3-0.1,0.5-0.2,0.7-0.2
		c0.1,0,0.2-0.1,0.2-0.1c0.1,0,0.1,0,0.1,0s0.2-0.1,0.6-0.2c0.2-0.1,0.4-0.2,0.7-0.3c0.3-0.1,0.6-0.3,0.9-0.4
		c1.4-0.6,3.4-1.6,5.8-2.9c2.4-1.4,5.1-3.1,7.8-5.3c2.7-2.2,5.5-4.8,8-7.8c2.5-3,4.8-6.3,6.7-9.7c1.9-3.4,3.4-7,4.5-10.4
		c0.1-0.4,0.3-0.8,0.4-1.3c0.1-0.4,0.2-0.8,0.4-1.2c0.1-0.4,0.2-0.8,0.3-1.2c0.1-0.2,0.1-0.4,0.1-0.6c0-0.2,0.1-0.4,0.1-0.6
		c0-0.2,0.1-0.4,0.1-0.6c0-0.2,0.1-0.4,0.1-0.6c0.1-0.4,0.2-0.8,0.2-1.1c0.1-0.4,0.1-0.7,0.2-1.1c0.1-0.4,0.1-0.7,0.2-1.1
		c0-0.2,0.1-0.3,0.1-0.5c0-0.2,0-0.3,0.1-0.5c0-0.3,0.1-0.7,0.1-1c0-0.3,0.1-0.6,0.1-0.9c0-0.3,0.1-0.6,0.1-0.9
		c0.1-1.1,0.1-2.2,0.1-3c0-0.5,0-1.7-0.1-1.2c0-1,0.1-1.4,0-1.6c0,1.3-0.1-0.4-0.2,0.9l0-0.8c0-0.2,0,1.1,0,0.9l0.1,0.2
		c0,0.3,0,0.6,0,0.8c0,0.2,0,0.4-0.1,0.5c0,0.3,0,0.6,0,0.9c0,0.2,0,0.4,0,0.7c0,0.3,0,0.6-0.1,0.9l0-0.4c-0.1,1.2-0.1,0.7-0.2,1
		l0-0.3c0,0.3-0.1,0.7-0.1,1c0.1-0.8,0.1-2.1,0.1-1.4c-0.2,1.4,0.1-0.4,0,0.7c-0.1,0.7-0.1,0.5-0.1,0.4l-0.1,1.2c0,0,0.1-0.8,0-0.3
		c0,0.3,0,0.5-0.1,0.8l-0.1,0.8c-0.1,0.3-0.2,1.7-0.4,2.3c0.2-1.1,0,0.1-0.1-0.1l-0.3,1.3l-0.3,1.3c-0.1,0.2,0.1-0.7,0-0.3
		c0,0.1-0.1,0.2-0.1,0.3c0,0.1,0,0.2-0.1,0.3c0,0.2-0.1,0.3-0.1,0.5c0,0.1-0.1,0.2-0.1,0.4c0,0.1-0.1,0.2-0.1,0.3
		c0,0.1-0.1,0.2-0.1,0.3c-0.1,0.4-0.2,0.9-0.3,0.8c-0.1,0.2-0.1,0.4-0.2,0.5c0,0.1-0.1,0.3-0.1,0.3c0,0.2-0.1,0.3-0.1,0.4
		c0,0.2,0,0.3-0.3,1.1c-0.1,0.1,0-0.2,0.1-0.5c0.1-0.3,0.1-0.5,0-0.1l-0.3,0.8l-0.1,0.4l-0.1,0.4c0-0.2,0.1-0.3,0.3-1
		c-0.8,2.3-1.5,3.9-2.3,5.5c-0.8,1.6-1.6,3.1-2.6,5c-0.3,0.5,0.2-0.4,0.4-0.8c-0.2,0.3-0.4,0.7-0.5,1c-0.1,0.1-0.2,0.3-0.2,0.4
		c-0.1,0.1-0.2,0.3-0.2,0.4c-0.2,0.3-0.3,0.5-0.5,0.7c-0.2,0.2-0.3,0.4-0.4,0.7c-0.6,0.9-1.2,1.7-1.9,2.8l0,0.1
		c-1.1,1.5-2.4,3.1-3.8,4.7c-1.4,1.6-2.9,3.1-4.5,4.5l0.4-0.3c-0.1,0.1-0.2,0.2-0.3,0.4c-0.1,0.1-0.3,0.3-0.4,0.4
		c-0.3,0.3-0.6,0.5-0.8,0.8c0,0,0-0.1,0-0.1c0,0-0.1,0.1-0.6,0.5c0.2-0.2,0.6-0.5,0.5-0.4c-0.4,0.3-0.8,0.6-1.2,1
		c-0.4,0.3-0.9,0.7-1.5,1.1c-0.3,0.2-0.5,0.4-0.8,0.6c-0.3,0.2-0.6,0.4-0.9,0.6c-0.3,0.2-0.6,0.4-0.9,0.6c-0.3,0.2-0.6,0.4-1,0.6
		c-1.3,0.8-2.7,1.7-4.1,2.4c-1.4,0.8-2.8,1.5-4.2,2.1c-3.6,1.7-7.6,3-11.7,3.8c-4.1,0.9-8.2,1.3-12.1,1.3c1.2,0,0.7,0.1-0.2,0.1
		c-0.3,0-0.6,0-0.9-0.1c-0.3,0-0.6,0-0.9,0c-0.3,0-0.6,0-0.8,0c-0.3,0-0.5,0-0.8,0c-1.1-0.1-2.2-0.1-3.4-0.3
		c-2.3-0.2-4.4-0.6-6.5-1.1c-2.1-0.5-4.1-1.1-6.1-1.7l-0.1-0.1c-0.6-0.2-0.8-0.3-1.4-0.5l0,0c-0.2-0.1-0.4-0.1-0.6-0.2
		c-0.2-0.1-0.4-0.1-0.6-0.2c-0.4-0.2-0.8-0.3-1.1-0.5c-0.7-0.3-1.4-0.6-1.8-0.8l-0.1,0c-0.9-0.4-0.4-0.2-1.3-0.6l0,0
		c-0.3-0.2-0.7-0.3-1-0.5c0,0-0.1-0.1-0.3-0.2c-0.1-0.1-0.2-0.1-0.4-0.2c-0.2-0.1-0.3-0.2-0.5-0.3c-0.3-0.2-0.7-0.4-1-0.6
		c-0.3-0.2-0.6-0.3-0.7-0.5c-0.1-0.1-0.3-0.2-0.4-0.2c-0.2-0.1-0.3-0.2-0.5-0.3c-0.4-0.2-0.8-0.4-1.2-0.7c-0.4-0.3-0.8-0.5-1.2-0.8
		c-0.4-0.3-0.8-0.6-1.2-0.8c-0.1-0.1-0.6-0.5-1.3-1c-0.2-0.1-0.3-0.2-0.5-0.4c-0.2-0.1-0.3-0.3-0.5-0.4c-0.3-0.3-0.6-0.5-0.9-0.8
		c-1.1-0.9-2.4-2-3.6-3.3c-1.3-1.3-2.6-2.7-3.7-4l0,0.1c-0.2-0.2-0.4-0.5-0.6-0.7c0,0-0.1-0.1,0,0c-0.2-0.3-0.5-0.7-0.9-1.1
		c-0.2-0.2-0.3-0.4-0.5-0.6c-0.2-0.2-0.3-0.4-0.4-0.5c0.1,0.2,0.2,0.3,0.3,0.5c0.1,0.1,0.2,0.3,0.4,0.5c0.4,0.6-0.1,0.1-0.7-0.8l0,0
		L15,95c0-0.1-0.4-0.6-0.4-0.7c-1.8-2.5-2.9-4.3-4.4-7.1c0.2,0.3-1-2-0.7-1.5c-0.8-1.7,0.1,0.3-0.4-0.4c-0.1-0.2-0.2-0.5-0.3-0.7
		c-0.1-0.2-0.2-0.3-0.2-0.4c0.1,0.2-0.1-0.4,0.1,0l-0.3-0.6c-0.1-0.2-0.2-0.4-0.3-0.6c0-0.1,0.1,0.1,0.1,0.3C7.9,82.1,7.5,81,7.2,80
		c-0.1-0.3-0.2-0.5-0.3-0.8c-0.1-0.3-0.2-0.5-0.2-0.8c-0.2-0.5-0.3-1.1-0.5-1.6c-0.1-0.2,0.3,0.9,0.2,0.7c-0.2-0.6-0.3-1-0.4-1.3
		c-0.1-0.3-0.1-0.6-0.2-0.8c0-0.1-0.1-0.2-0.1-0.4c0-0.1-0.1-0.3-0.1-0.4c-0.1-0.3-0.2-0.7-0.3-1.2c0,0.1,0.1,0.3,0.1,0.4
		c-0.1-0.2-0.1-0.3-0.1-0.5c0-0.1-0.1-0.3-0.1-0.4c-0.1-0.3-0.2-0.7-0.2-1.2c0-0.1,0.1,0.1,0.1,0.5c0.1,0.3,0.2,0.8,0.2,1
		c-0.2-0.8-0.6-2.7-0.5-2.1c-0.1-0.2-0.1-0.4-0.1-0.6c0-0.2,0-0.3-0.1-0.5c0-0.3-0.1-0.5-0.1-0.7c0,0,0.1,0.9,0,0.3
		c0-0.3-0.1-0.7-0.1-1.1c-0.1-0.4-0.1-0.8-0.2-1.2c0-0.2,0-0.4-0.1-0.6c0-0.2,0-0.4-0.1-0.6c0-0.4-0.1-0.8-0.1-1.2c0,0,0-0.1,0,0
		C3.9,63.5,4,63.7,3.9,61.9z M52.9,1.9c-0.2,0-0.4,0.1-0.6,0.1c0,0,0,0-0.3,0.1C52.3,2,52.6,1.9,52.9,1.9z M25.5,14.3
		c-0.1,0.1-0.1,0.1-0.2,0.2C25.4,14.3,25.5,14.3,25.5,14.3z M20.1,19.3c0.4-0.4,0-0.1-0.2,0.1C20,19.5,20,19.5,20.1,19.3z M70.1,1.3
		c-0.1,0-0.2,0-0.2,0C70.1,1.3,70.1,1.3,70.1,1.3z M110.3,24.7c0,0-0.1-0.1-0.1-0.2C110.2,24.5,110.3,24.6,110.3,24.7z M108.7,22.5
		c-0.1-0.1-0.2-0.2-0.4-0.4C108.5,22.3,108.7,22.4,108.7,22.5z M58.6,1.1c-0.2,0-0.3,0-0.5,0.1C58.3,1.1,58.5,1.1,58.6,1.1z
		 M108,21.7c-0.1-0.2-0.3-0.3-0.4-0.5c0,0,0,0,0,0C107.7,21.4,107.9,21.5,108,21.7z M110.8,25.3c-0.2-0.2-0.4-0.5-0.5-0.7
		C110.5,24.9,110.7,25.1,110.8,25.3z M87,5.9C87,5.9,86.9,5.9,87,5.9C86.4,5.7,86.7,5.8,87,5.9z M106,19.6
		C106,19.6,106,19.6,106,19.6l-0.2-0.2L106,19.6z M112.4,27.7c-0.1-0.1-0.1-0.2-0.2-0.3C112.3,27.5,112.4,27.6,112.4,27.7
		C112.4,27.7,112.4,27.7,112.4,27.7z M95.7,10.8c0.2,0.1,0.2,0.1,0.2,0.1C95.8,10.8,95.6,10.7,95.7,10.8z M93.7,87.3
		c-1.7,0.2-3.8-0.8-5.1,1.3c1.2,2.3,6.9,2.5,5.4,5.8c-3.4,1.9-7.3-2.8-7.3-5.8c2.7-2.6-0.5-3.6-2.9-3.3c-5.5-0.4,4.1-6.4-6.7-9.1
		c-1.6-1.8-4.8,2.9-2.7,2.4c4.9-0.3,8.4,4.3,5.6,8.8c-4.2,7.5,9.1-0.8,6.6,9.2c-0.5,0.8,2.1,1.3,0.2,1.8c-0.5,0.1-1.5-0.9-1.9-1.6
		c0.1-3.3-0.4-5.3-4.1-3.3c-11,1.3,2.5-11.2-5.5-12c-4.3-0.7-8.1,4.2-12.5,2.7c-3.6,0.6-9.6-7.8-9.2-1.7c-0.2,7.4,10.2,0.2,13.4,3.7
		c7.1,5.6-3,12.7-9.1,9.7c-5.5-3.2-7.3,6.4-12.5,5.2c-1.1-0.8,0.3-1.5,0.6-2.3c0.5-1,1-3,1.5-3c8.9-4.4,4.1-1.8,13.6-2
		c2.2,0.5,1.7-1.4,3.1-2.6c3.8-3.4-2.3-4-4.3-2.2c-3.6,2.6-6.5-0.3-9.7-1.2c-0.7-1.9-2.3-5.2-0.7-7.6c3.5-3.8,1.3-8,0.3-3.7
		c-1,1.7-1,4.3-4.1,4c-0.8,0.2-4,1.5-3,2.9c0.4,0.4,0.5,1.2,0.4,1.7c-0.2,1.1,2.1,1.5,0.7,2.8c-1.5,3.3-6,0.4-5.4,4.2
		c1.1,2.3-2,8.4-3.1,3.8c-3.4-7.6,6.9-7,5.3-9.8c-5-4.6,1-3.2-7.3-9.2c-3.5-2.6-2,3.9-3.8,5.3c-0.4,0.8-1.1,1.8-2.6,0.8
		c-1.2-0.8-3.3,0-4.6-1.1c0.7-1.2,3.2-1.7,4.1-1.2c1.8,1.5,2.1,0,2.4-1c0.7-2.4,0.6-8.4,4.6-6.3c1.2,0.7,3.1,0.7,3.2,2.9
		c0.7,1.7,4.7,1.7,4.7-1C41.1,74.2,42,73,42,71.9c0.2-2.8,0.2-2.8-2.8-3.6c-3-1.8-5.1-3.1-7.7-2.8c-7.5,0.8-2-9.9-6.4-9.4
		c-2.6,1.2-5.5,2.9-6.7-1c-1.3-1.6-1.9-3.7,0.7-2.5c0.9,3.8,2.9,4,5.7,1.3c2.3-1.3-0.4-2.4-1.3-3.7c-0.5-5,8.1,0.3,9.6,2.2
		c1.5,1.7,1.4,12.1,5.4,6.8c0.9-0.7,0.2-1,0-1.7c-7.8-18.6,9.6-9.6,11.3-14.2c-0.6-9.8-14.5,6.6-16.2-4.4c1.4-12.7-5.9,0.4-8.4-10.2
		c0.4-0.9-2-1.3-0.3-2c0.3-0.1,2.2,1.1,2.1,1.9c-0.9,7.2,7.9-3.2,10.4,3.3c-3.4,6.8,0.6,10.8,7,6.2c2.2-2.1,4.6-2.7,7.1-0.7
		c1.5,1.4,1.5-2.7,2-3.7c2-4.8-5.1-1.8-4.7-5.8c3.7-6.5-3.7-5.6-3.7-10.2c3.6-2,9,4.3,6.1,7.9c-1.7,2.7,0.8,1.9,2.6,2
		c3.2,0.1,3.7,0.7,2.1,3.5c-1.1,1.8-0.1,10.9,3.1,9.7c0.9-0.3,2.2-0.1,1.4-2.3c-7.1-21.1,13.4-4.6,9.6-14.7c-0.8-3,2.2-4.3,4.6-3.7
		c0.6,0.1,0.9-1.7,1.6-0.3c-0.5,3.6-3.5,1-4.6,3c4.3,18.2-8.7,0.9-9.6,9.4c0,1.9,1.6,12,4.2,8.9c0.9-5.6,10-1.8,7.9-8.5
		c-1.9-6.4,7.5-1.4,5.5-7.8c-0.1-0.8,0.4-1.8,0.8-2.6c2.5-3,3.3,3.4,2.4,4.7c-1.4,3.4,5.4,5.3,7.1,8.2c2.8,3.9,5.6,0.5,9.6,1.2
		c4.7,1.9-1.8,3.2-0.7,4.7c3.5,0.5-2.1,3.3-3,1c-3.2-2.9-4.3,3.1-5.9,4.9c-0.5,3.3-8.3,6-6,6.3c2.4-0.9,7-1.2,7.6,1.9
		c0,2.7-5.3,0.7-4.5,3.4c0.4,1,2.5,1.8,3.2,1.3c7.6-8.4,5.9,3.8,10,0.3c1.4-1.9,6.7-1.6,4.6,1.2c-1,3.3-7.1,1.3-6.1,3.4
		c1.5,2.6,2.3,5.2,0.5,8.1c0.4,4.4,9.7-2.4,8.5,5.5c0.4,0.7,1.6,1.3,0.5,2.2c-1.4-0.4-2.7-3.1-3-4.4c-4.3,0-10.8,3.4-8.6-4.7
		c3.1-13-11.6,4.5-16.6-5.5c-3-0.9,5.6,8.9,6.8,7.2c7-1.7,8.5,5.9,4.9,10.7c-0.3,4.4,9.3-2,7.3,6.7c-0.1,0.6,1.8,0.9,0.3,1.5
		C95.6,91.4,98.2,86.2,93.7,87.3z M43,78.8 M47.3,66.8c-4.6,2.7-2.6,7.8-4.2,11.9C47.2,76.4,50.1,71.3,47.3,66.8z M48.8,50.2
		c-1.6-1.8-10.9-1.3-7.8,2.4c0.6,3.4,2.5,4.7,5.2,6.1C48.2,56.2,47.8,53.5,48.8,50.2z M78.1,34.8c2.3,3.1,3.2,1.5,5.9,2.9
		c1.4,1.7,3.6,2.9,4.4,4.8c0.8,3.3,4.7-3.9,1.9-3.6c-0.5-0.1-1.3-0.6-1.4-1.1c-0.7-2.9-4.1-3-5.3-5.2C81.9,32.1,79.3,33.6,78.1,34.8
		z M79.4,49.2c9.5-1.4,3.5-10,0.2-7.5C76.6,44.5,76.7,46.8,79.4,49.2z M84.7,78.9c-0.5,2.5,0.4,2.5,2.1,3.3c1.2,1.9,5.1-3.9,3.9-4.6
		C90,74.7,84.3,75.2,84.7,78.9z M83.7,61.4c-0.7,5.2,6.3,5.7,5.6,1.6C88.9,61.3,81.4,58.3,83.7,61.4z M77.9,38.4
		c-2.5-3.3-5.7,2-8.2,3.1C74.4,42.3,76.2,44.3,77.9,38.4z M29.8,53.1c-1.1,0.4,0.5,5.6,0,7.7C35.3,68,32.6,54.7,29.8,53.1z
		 M95.2,63.6c2.9,0,0.4-2.1-0.4-3.7C93.1,61.8,90.8,64.2,95.2,63.6z M42.8,62.8c-2-2-2.6-2.1-4.5-0.6C39.6,63.9,40.7,64,42.8,62.8z
		 M80.2,72.1c-0.6-0.5-1.1-1.2-1.9-0.6C79.1,72.3,79.4,73.9,80.2,72.1z"/>
</g>
</svg>
